<?xml version="1.0" encoding="UTF-8"?><svg id="Warstwa_1" xmlns="http://www.w3.org/2000/svg" viewBox="0 0 300 300"><defs><style>.cls-1{stroke-width:10px;}.cls-1,.cls-2,.cls-3{fill:none;stroke:#fff;stroke-linecap:round;stroke-linejoin:round;}.cls-2{stroke-width:8px;}.cls-3{stroke-width:9px;}</style></defs><path class="cls-1" d="M201.6,88.66c-9.64,12.32-22.54,29.92-36.03,52.18-25.58,42.19-38.44,63.3-34.79,85.73,4.52,27.77,30.06,58.76,65.85,62.12,39.91,3.75,73.32-28.65,79.52-58.4,5.27-25.28-8.75-47.46-37.27-91.94-13.74-21.42-27.15-38.09-37.27-49.7Z"/><circle class="cls-2" cx="191.66" cy="180.61" r="14.91"/><circle class="cls-2" cx="216.51" cy="246.46" r="14.91"/><path class="cls-1" d="M111.14,11.22c-5.04,6.44-11.78,15.63-18.83,27.26-13.36,22.05-20.08,33.07-18.18,44.79,2.36,14.51,15.71,30.7,34.41,32.46,20.85,1.96,38.31-14.97,41.55-30.51,2.75-13.21-4.57-24.8-19.47-48.04-7.18-11.19-14.19-19.9-19.47-25.97Z"/><path class="cls-1" d="M55.04,143.66c-4.47,5.71-10.45,13.87-16.7,24.19-11.85,19.56-17.82,29.34-16.13,39.74,2.09,12.87,13.94,27.24,30.52,28.8,18.5,1.74,33.99-13.28,36.86-27.07,2.44-11.72-4.06-22-17.28-42.62-6.37-9.93-12.59-17.65-17.28-23.04Z"/><line class="cls-3" x1="237.63" y1="179.36" x2="171.78" y2="245.21"/></svg>