<?xml version="1.0" encoding="utf-8"?>
<!-- Generator: Adobe Illustrator 26.5.3, SVG Export Plug-In . SVG Version: 6.00 Build 0)  -->
<svg version="1.1" id="Warstwa_1" xmlns="http://www.w3.org/2000/svg" xmlns:xlink="http://www.w3.org/1999/xlink" x="0px" y="0px"
	 viewBox="0 0 300 300" style="enable-background:new 0 0 300 300;" xml:space="preserve">
<style type="text/css">
	.st0{fill:none;stroke:#FFFFFF;stroke-width:13;stroke-linecap:round;stroke-linejoin:round;}
</style>
<path class="st0" d="M18.9,112.4h58.9c19.7-4.8,31.5-24.6,27-43c-4.6-18.6-24.5-30.3-41.8-25.8C46.6,48,40.3,65.3,39.8,67"/>
<path class="st0" d="M146.6,73.1c0.5-2.2,10.1-42.5,45.4-54C227.7,7.4,273.5,30.2,281,71c7,38.6-23,78-65.6,80.7H18.9"/>
<path class="st0" d="M121.1,245.8c0.3,1.6,7.2,30.4,32.6,38.7c25.6,8.4,58.4-8,63.8-37.2c5.1-27.7-16.5-55.9-47-57.8
	c-50.5,0.1-101,0.2-151.5,0.3"/>
</svg>
